0
SECTION
2
HEADER
9
$INSUNITS
70
4
9
$ACADVER
1
AC1014
9
$HANDSEED
5
FFFF
0
ENDSEC
0
SECTION
2
TABLES
0
TABLE
2
VPORT
5
8
100
AcDbSymbolTable
0
ENDTAB
0
TABLE
2
LTYPE
5
5
100
AcDbSymbolTable
0
LTYPE
5
14
100
AcDbSymbolTableRecord
100
AcDbLinetypeTableRecord
2
BYBLOCK
70
0
0
LTYPE
5
15
100
AcDbSymbolTableRecord
100
AcDbLinetypeTableRecord
2
BYLAYER
70
0
0
ENDTAB
0
TABLE
2
LAYER
5
2
100
AcDbSymbolTable
70
2
0
LAYER
5
50
100
AcDbSymbolTableRecord
100
AcDbLayerTableRecord
2
0
70
0
6
CONTINUOUS
0
ENDTAB
0
TABLE
2
STYLE
5
3
100
AcDbSymbolTable
70
1
0
STYLE
5
11
100
AcDbSymbolTableRecord
100
AcDbTextStyleTableRecord
2
STANDARD
70
0
0
ENDTAB
0
TABLE
2
VIEW
5
6
100
AcDbSymbolTable
70
0
0
ENDTAB
0
TABLE
2
UCS
5
7
100
AcDbSymbolTable
70
0
0
ENDTAB
0
TABLE
2
APPID
5
9
100
AcDbSymbolTable
70
2
0
APPID
5
12
100
AcDbSymbolTableRecord
100
AcDbRegAppTableRecord
2
ACAD
70
0
0
ENDTAB
0
TABLE
2
DIMSTYLE
5
A
100
AcDbSymbolTable
70
1
0
ENDTAB
0
TABLE
2
BLOCK_RECORD
5
1
100
AcDbSymbolTable
70
1
0
BLOCK_RECORD
5
1F
100
AcDbSymbolTableRecord
100
AcDbBlockTableRecord
2
*MODEL_SPACE
0
BLOCK_RECORD
5
1B
100
AcDbSymbolTableRecord
100
AcDbBlockTableRecord
2
*PAPER_SPACE
0
ENDTAB
0
ENDSEC
0
SECTION
2
BLOCKS
0
BLOCK
5
20
100
AcDbEntity
100
AcDbBlockBegin
2
*MODEL_SPACE
0
ENDBLK
5
21
100
AcDbEntity
100
AcDbBlockEnd
0
BLOCK
5
1C
100
AcDbEntity
100
AcDbBlockBegin
2
*PAPER_SPACE
0
ENDBLK
5
1D
100
AcDbEntity
100
AcDbBlockEnd
0
ENDSEC
0
SECTION
2
ENTITIES
0
LWPOLYLINE
5
100
100
AcDbEntity
8
0
100
AcDbPolyline
90
28
70
1
43
0.0
10
524.05098855166466
20
-20.392607899988878
10
194.05098855166466
20
-20.392607899988214
10
194.05098855166457
20
-61.892607899988221
42
-0.41421356237309503
10
191.0509885516646
20
-64.892607899988192
10
149.55098855166455
20
-64.89260789998815
10
149.55098855166383
20
-427.39260789998815
10
163.55098855166389
20
-427.39260789998821
10
163.55098855166389
20
-439.39260789998826
10
320.05098855166381
20
-439.39260789998855
10
320.05098855166386
20
-430.89260789998855
10
333.05098855166392
20
-430.89260789998855
10
333.05098855166392
20
-390.89260789998855
42
-0.41421356237309503
10
336.05098855166398
20
-387.89260789998849
10
382.05098855166398
20
-387.89260789998866
42
-0.41421356237309503
10
385.05098855166403
20
-390.89260789998866
10
385.05098855166386
20
-430.89260789998866
10
398.05098855166392
20
-430.89260789998866
10
398.05098855166386
20
-439.39260789998866
10
429.05098855166386
20
-439.39260789998877
10
429.05098855166386
20
-427.39260789998872
10
441.05098855166386
20
-427.39260789998872
10
441.05098855166386
20
-439.39260789998877
10
554.55098855166398
20
-439.39260789998906
10
554.55098855166398
20
-427.392607899989
10
568.55098855166398
20
-427.392607899989
10
568.55098855166443
20
-64.89260789998896
10
527.05098855166489
20
-64.89260789998886
42
-0.41421356237309592
10
524.05098855166489
20
-61.892607899988889
0
LWPOLYLINE
5
101
100
AcDbEntity
8
0
100
AcDbPolyline
90
28
70
1
43
0.0
10
524.05098855166466
20
-20.392607899988878
10
194.05098855166466
20
-20.392607899988214
10
194.05098855166457
20
-61.892607899988221
42
-0.41421356237309503
10
191.0509885516646
20
-64.892607899988192
10
149.55098855166455
20
-64.89260789998815
10
149.55098855166383
20
-427.39260789998815
10
163.55098855166389
20
-427.39260789998821
10
163.55098855166389
20
-439.39260789998826
10
320.05098855166381
20
-439.39260789998855
10
320.05098855166386
20
-430.89260789998855
10
333.05098855166392
20
-430.89260789998855
10
333.05098855166392
20
-390.89260789998855
42
-0.41421356237310897
10
336.05098855166398
20
-387.89260789998849
10
382.05098855166398
20
-387.89260789998866
42
-0.41421356237309503
10
385.05098855166403
20
-390.89260789998866
10
385.05098855166386
20
-430.89260789998866
10
398.05098855166392
20
-430.89260789998866
10
398.05098855166386
20
-439.39260789998866
10
429.05098855166386
20
-439.39260789998877
10
429.05098855166386
20
-427.39260789998872
10
441.05098855166386
20
-427.39260789998872
10
441.05098855166386
20
-439.39260789998877
10
554.55098855166398
20
-439.39260789998906
10
554.55098855166398
20
-427.392607899989
10
568.55098855166398
20
-427.392607899989
10
568.55098855166443
20
-64.892607899988946
10
527.05098855166489
20
-64.89260789998886
42
-0.41421356237309592
10
524.05098855166489
20
-61.892607899988889
0
ENDSEC
0
SECTION
2
OBJECTS
0
DICTIONARY
5
C
100
AcDbDictionary
3
ACAD_GROUP
350
D
3
ACAD_MLINESTYLE
350
17
0
DICTIONARY
5
D
100
AcDbDictionary
0
DICTIONARY
5
1A
330
C
100
AcDbDictionary
0
DICTIONARY
5
17
100
AcDbDictionary
0
ENDSEC
0
EOF
