0
SECTION
2
HEADER
9
$INSUNITS
70
4
9
$ACADVER
1
AC1014
9
$HANDSEED
5
FFFF
0
ENDSEC
0
SECTION
2
TABLES
0
TABLE
2
VPORT
5
8
100
AcDbSymbolTable
0
ENDTAB
0
TABLE
2
LTYPE
5
5
100
AcDbSymbolTable
0
LTYPE
5
14
100
AcDbSymbolTableRecord
100
AcDbLinetypeTableRecord
2
BYBLOCK
70
0
0
LTYPE
5
15
100
AcDbSymbolTableRecord
100
AcDbLinetypeTableRecord
2
BYLAYER
70
0
0
ENDTAB
0
TABLE
2
LAYER
5
2
100
AcDbSymbolTable
70
2
0
LAYER
5
50
100
AcDbSymbolTableRecord
100
AcDbLayerTableRecord
2
0
70
0
6
CONTINUOUS
0
ENDTAB
0
TABLE
2
STYLE
5
3
100
AcDbSymbolTable
70
1
0
STYLE
5
11
100
AcDbSymbolTableRecord
100
AcDbTextStyleTableRecord
2
STANDARD
70
0
0
ENDTAB
0
TABLE
2
VIEW
5
6
100
AcDbSymbolTable
70
0
0
ENDTAB
0
TABLE
2
UCS
5
7
100
AcDbSymbolTable
70
0
0
ENDTAB
0
TABLE
2
APPID
5
9
100
AcDbSymbolTable
70
2
0
APPID
5
12
100
AcDbSymbolTableRecord
100
AcDbRegAppTableRecord
2
ACAD
70
0
0
ENDTAB
0
TABLE
2
DIMSTYLE
5
A
100
AcDbSymbolTable
70
1
0
ENDTAB
0
TABLE
2
BLOCK_RECORD
5
1
100
AcDbSymbolTable
70
1
0
BLOCK_RECORD
5
1F
100
AcDbSymbolTableRecord
100
AcDbBlockTableRecord
2
*MODEL_SPACE
0
BLOCK_RECORD
5
1B
100
AcDbSymbolTableRecord
100
AcDbBlockTableRecord
2
*PAPER_SPACE
0
ENDTAB
0
ENDSEC
0
SECTION
2
BLOCKS
0
BLOCK
5
20
100
AcDbEntity
100
AcDbBlockBegin
2
*MODEL_SPACE
0
ENDBLK
5
21
100
AcDbEntity
100
AcDbBlockEnd
0
BLOCK
5
1C
100
AcDbEntity
100
AcDbBlockBegin
2
*PAPER_SPACE
0
ENDBLK
5
1D
100
AcDbEntity
100
AcDbBlockEnd
0
ENDSEC
0
SECTION
2
ENTITIES
0
LWPOLYLINE
5
100
100
AcDbEntity
8
0
100
AcDbPolyline
90
28
70
1
43
0.0
10
149.7071800231941
20
-65.207092285155497
10
149.70718002319336
20
-427.70709228515551
10
163.70718002319342
20
-427.70709228515551
10
163.70718002319339
20
-439.70709228515557
10
320.20718002319342
20
-439.70709228515591
10
320.20718002319342
20
-431.20709228515585
10
333.20718002319336
20
-431.20709228515585
10
333.20718002319347
20
-391.20709228515585
42
-0.41421356237307422
10
336.20718002319347
20
-388.20709228515591
10
382.20718002319347
20
-388.20709228515597
42
-0.41421356237309509
10
385.20718002319347
20
-391.20709228515602
10
385.20718002319342
20
-431.20709228515602
10
398.20718002319336
20
-431.20709228515602
10
398.20718002319336
20
-439.70709228515602
10
429.20718002319342
20
-439.70709228515608
10
429.20718002319342
20
-427.70709228515608
10
441.20718002319347
20
-427.70709228515608
10
441.20718002319342
20
-439.70709228515608
10
554.70718002319347
20
-439.70709228515631
10
554.70718002319347
20
-427.70709228515636
10
568.70718002319347
20
-427.70709228515636
10
568.70718002319381
20
-65.207092285156349
10
527.20718002319416
20
-65.207092285156222
42
-0.41421356237309587
10
524.20718002319416
20
-62.207092285156236
10
524.20718002319416
20
-20.707092285156232
10
194.20718002319418
20
-20.707092285155589
10
194.2071800231941
20
-62.207092285155596
42
-0.41421356237309331
10
191.20718002319416
20
-65.207092285155554
0
LWPOLYLINE
5
101
100
AcDbEntity
8
0
100
AcDbPolyline
90
8
70
1
43
0.0
10
302.36120804567503
20
-112.96045625553378
10
303.77542160804802
20
-112.96045625553378
10
312.96780976347299
20
-122.15284441095882
10
312.96780976347304
20
-123.56705797333184
10
251.39926726854895
20
-185.13560046825575
10
249.98505370617585
20
-185.13560046825572
10
240.79266555075094
20
-175.94321231283067
10
240.79266555075094
20
-174.5289987504577
0
LWPOLYLINE
5
102
100
AcDbEntity
8
0
100
AcDbPolyline
90
8
70
1
43
0.0
10
302.36120804567457
20
-348.13785566737982
10
240.79266555075071
20
-286.56931317245574
10
240.79266555075071
20
-285.15509961008269
10
249.98505370617573
20
-275.96271145465772
10
251.39926726854873
20
-275.96271145465766
10
312.96780976347259
20
-337.53125394958084
10
312.96780976347259
20
-338.94546751195486
10
303.77542160804757
20
-348.13785566737982
0
LWPOLYLINE
5
103
100
AcDbEntity
8
0
100
AcDbPolyline
90
8
70
1
43
0.0
10
403.79492074987405
20
-123.56705797333203
10
403.79492074987405
20
-122.15284441095901
10
412.98730890529902
20
-112.96045625553403
10
414.40152246767212
20
-112.96045625553403
10
475.9700649625961
20
-174.52899875045816
10
475.9700649625961
20
-175.94321231283118
10
466.77767680717091
20
-185.13560046825617
10
465.36346324479791
20
-185.13560046825614
0
LWPOLYLINE
5
104
100
AcDbEntity
8
0
100
AcDbPolyline
90
8
70
1
43
0.0
10
403.7949207498736
20
-337.53125394958096
10
465.36346324479774
20
-275.96271145465715
10
466.77767680717074
20
-275.96271145465715
10
475.97006496259581
20
-285.15509961008212
10
475.97006496259581
20
-286.56931317245511
10
414.40152246767155
20
-348.13785566738005
10
412.98730890529851
20
-348.13785566738005
10
403.7949207498736
20
-338.94546751195406
0
CIRCLE
5
105
100
AcDbEntity
8
0
100
AcDbCircle
10
445.99153831193985
20
-230.54915596145707
30
0
40
1.7500000000000102
210
4.8580171370640143e-47
220
2.4651903288156619e-32
230
1
0
CIRCLE
5
106
100
AcDbEntity
8
0
100
AcDbCircle
10
358.38136525667267
20
-318.15932901672289
30
0
40
1.7500000000000402
210
0
220
-0
230
1
0
CIRCLE
5
107
100
AcDbEntity
8
0
100
AcDbCircle
10
358.38136525667295
20
-142.93898290618992
30
0
40
1.7500000000000102
210
4.8580171370640143e-47
220
2.4651903288156619e-32
230
1
0
CIRCLE
5
108
100
AcDbEntity
8
0
100
AcDbCircle
10
270.77119220140679
20
-230.54915596145673
30
0
40
1.7500000000000102
210
4.8580171370640143e-47
220
2.4651903288156619e-32
230
1
0
LWPOLYLINE
5
109
100
AcDbEntity
8
0
100
AcDbPolyline
90
16
70
1
43
0.0
10
439.45600440600685
20
-219.9425528403381
10
439.45600440600714
20
-241.15575627593506
42
-0.19891236737963996
10
438.28443153075318
20
-243.98418340068156
10
371.81639409921718
20
-310.45222083221643
42
-0.19891236737972434
10
368.98796697447068
20
-311.62379370747067
10
347.77476353887465
20
-311.6237937074709
42
-0.19891236737967244
10
344.9463364141285
20
-310.45222083221705
10
278.47829898259261
20
-243.98418340068088
42
-0.19891236737964854
10
277.30672610733887
20
-241.15575627593478
10
277.30672610733865
20
-219.94255284033778
42
-0.19891236737963122
10
278.478298982593
20
-217.11412571559194
10
344.94633641412833
20
-150.64608828405628
42
-0.19891236737968929
10
347.77476353887488
20
-149.47451540880206
10
368.98796697447096
20
-149.47451540880274
42
-0.19891236737964693
10
371.81639409921729
20
-150.64608828405659
10
438.28443153075307
20
-217.11412571559183
42
-0.19891236737967993
0
ENDSEC
0
SECTION
2
OBJECTS
0
DICTIONARY
5
C
100
AcDbDictionary
3
ACAD_GROUP
350
D
3
ACAD_MLINESTYLE
350
17
0
DICTIONARY
5
D
100
AcDbDictionary
0
DICTIONARY
5
1A
330
C
100
AcDbDictionary
0
DICTIONARY
5
17
100
AcDbDictionary
0
ENDSEC
0
EOF
