0
SECTION
2
HEADER
9
$INSUNITS
70
4
9
$ACADVER
1
AC1014
9
$HANDSEED
5
FFFF
0
ENDSEC
0
SECTION
2
TABLES
0
TABLE
2
VPORT
5
8
100
AcDbSymbolTable
0
ENDTAB
0
TABLE
2
LTYPE
5
5
100
AcDbSymbolTable
0
LTYPE
5
14
100
AcDbSymbolTableRecord
100
AcDbLinetypeTableRecord
2
BYBLOCK
70
0
0
LTYPE
5
15
100
AcDbSymbolTableRecord
100
AcDbLinetypeTableRecord
2
BYLAYER
70
0
0
ENDTAB
0
TABLE
2
LAYER
5
2
100
AcDbSymbolTable
70
2
0
LAYER
5
50
100
AcDbSymbolTableRecord
100
AcDbLayerTableRecord
2
0
70
0
6
CONTINUOUS
0
ENDTAB
0
TABLE
2
STYLE
5
3
100
AcDbSymbolTable
70
1
0
STYLE
5
11
100
AcDbSymbolTableRecord
100
AcDbTextStyleTableRecord
2
STANDARD
70
0
0
ENDTAB
0
TABLE
2
VIEW
5
6
100
AcDbSymbolTable
70
0
0
ENDTAB
0
TABLE
2
UCS
5
7
100
AcDbSymbolTable
70
0
0
ENDTAB
0
TABLE
2
APPID
5
9
100
AcDbSymbolTable
70
2
0
APPID
5
12
100
AcDbSymbolTableRecord
100
AcDbRegAppTableRecord
2
ACAD
70
0
0
ENDTAB
0
TABLE
2
DIMSTYLE
5
A
100
AcDbSymbolTable
70
1
0
ENDTAB
0
TABLE
2
BLOCK_RECORD
5
1
100
AcDbSymbolTable
70
1
0
BLOCK_RECORD
5
1F
100
AcDbSymbolTableRecord
100
AcDbBlockTableRecord
2
*MODEL_SPACE
0
BLOCK_RECORD
5
1B
100
AcDbSymbolTableRecord
100
AcDbBlockTableRecord
2
*PAPER_SPACE
0
ENDTAB
0
ENDSEC
0
SECTION
2
BLOCKS
0
BLOCK
5
20
100
AcDbEntity
100
AcDbBlockBegin
2
*MODEL_SPACE
0
ENDBLK
5
21
100
AcDbEntity
100
AcDbBlockEnd
0
BLOCK
5
1C
100
AcDbEntity
100
AcDbBlockBegin
2
*PAPER_SPACE
0
ENDBLK
5
1D
100
AcDbEntity
100
AcDbBlockEnd
0
ENDSEC
0
SECTION
2
ENTITIES
0
LWPOLYLINE
5
100
100
AcDbEntity
8
0
100
AcDbPolyline
90
16
70
1
43
0.0
10
573.50021584202841
20
13.500000563806637
42
0.41421356237309209
10
575.50021584202807
20
15.500000563806902
10
575.500215841966
20
484.50000047439778
42
0.41421356237311585
10
573.50021584196577
20
486.50000047439767
10
434.52316225764014
20
486.50000047437919
42
0.41421356237309503
10
432.52316225764042
20
484.50000047437902
10
432.52316225764537
20
447.49999999754402
42
-0.41421356237308909
10
429.02316225764588
20
443.99999999754357
10
289.02316225764605
20
443.99999999752492
42
-0.41421356237309209
10
285.52316225764559
20
447.49999999752447
10
285.52316225764071
20
484.50000047435958
42
0.41421356237308982
10
283.52316225764048
20
486.5000004743593
10
144.50021593137527
20
486.50000047434082
42
0.41421356237309503
10
142.50021593137555
20
484.50000047434054
10
142.50021593143762
20
15.500000563749614
42
0.41421356237308948
10
144.50021593143791
20
13.500000563749918
0
LWPOLYLINE
5
101
100
AcDbEntity
8
0
100
AcDbPolyline
90
16
70
1
43
0.0
10
573.50021584202841
20
13.500000563806637
42
0.41421356237309209
10
575.50021584202807
20
15.500000563806902
10
575.500215841966
20
484.50000047439778
42
0.41421356237309503
10
573.50021584196577
20
486.50000047439767
10
434.52316225764014
20
486.50000047437919
42
0.41421356237307422
10
432.52316225764042
20
484.50000047437902
10
432.52316225764537
20
447.49999999754402
42
-0.41421356237308909
10
429.02316225764588
20
443.99999999754357
10
289.02316225764605
20
443.99999999752492
42
-0.41421356237309209
10
285.52316225764559
20
447.49999999752447
10
285.52316225764071
20
484.50000047435958
42
0.41421356237310025
10
283.52316225764048
20
486.50000047435935
10
144.50021593137529
20
486.50000047434082
42
0.41421356237308982
10
142.50021593137558
20
484.50000047434054
10
142.50021593143762
20
15.500000563749623
42
0.41421356237309176
10
144.50021593143791
20
13.500000563749918
0
ENDSEC
0
SECTION
2
OBJECTS
0
DICTIONARY
5
C
100
AcDbDictionary
3
ACAD_GROUP
350
D
3
ACAD_MLINESTYLE
350
17
0
DICTIONARY
5
D
100
AcDbDictionary
0
DICTIONARY
5
1A
330
C
100
AcDbDictionary
0
DICTIONARY
5
17
100
AcDbDictionary
0
ENDSEC
0
EOF
