0
SECTION
2
HEADER
9
$INSUNITS
70
4
9
$ACADVER
1
AC1014
9
$HANDSEED
5
FFFF
0
ENDSEC
0
SECTION
2
TABLES
0
TABLE
2
VPORT
5
8
100
AcDbSymbolTable
0
ENDTAB
0
TABLE
2
LTYPE
5
5
100
AcDbSymbolTable
0
LTYPE
5
14
100
AcDbSymbolTableRecord
100
AcDbLinetypeTableRecord
2
BYBLOCK
70
0
0
LTYPE
5
15
100
AcDbSymbolTableRecord
100
AcDbLinetypeTableRecord
2
BYLAYER
70
0
0
ENDTAB
0
TABLE
2
LAYER
5
2
100
AcDbSymbolTable
70
2
0
LAYER
5
50
100
AcDbSymbolTableRecord
100
AcDbLayerTableRecord
2
0
70
0
6
CONTINUOUS
0
ENDTAB
0
TABLE
2
STYLE
5
3
100
AcDbSymbolTable
70
1
0
STYLE
5
11
100
AcDbSymbolTableRecord
100
AcDbTextStyleTableRecord
2
STANDARD
70
0
0
ENDTAB
0
TABLE
2
VIEW
5
6
100
AcDbSymbolTable
70
0
0
ENDTAB
0
TABLE
2
UCS
5
7
100
AcDbSymbolTable
70
0
0
ENDTAB
0
TABLE
2
APPID
5
9
100
AcDbSymbolTable
70
2
0
APPID
5
12
100
AcDbSymbolTableRecord
100
AcDbRegAppTableRecord
2
ACAD
70
0
0
ENDTAB
0
TABLE
2
DIMSTYLE
5
A
100
AcDbSymbolTable
70
1
0
ENDTAB
0
TABLE
2
BLOCK_RECORD
5
1
100
AcDbSymbolTable
70
1
0
BLOCK_RECORD
5
1F
100
AcDbSymbolTableRecord
100
AcDbBlockTableRecord
2
*MODEL_SPACE
0
BLOCK_RECORD
5
1B
100
AcDbSymbolTableRecord
100
AcDbBlockTableRecord
2
*PAPER_SPACE
0
ENDTAB
0
ENDSEC
0
SECTION
2
BLOCKS
0
BLOCK
5
20
100
AcDbEntity
100
AcDbBlockBegin
2
*MODEL_SPACE
0
ENDBLK
5
21
100
AcDbEntity
100
AcDbBlockEnd
0
BLOCK
5
1C
100
AcDbEntity
100
AcDbBlockBegin
2
*PAPER_SPACE
0
ENDBLK
5
1D
100
AcDbEntity
100
AcDbBlockEnd
0
ENDSEC
0
SECTION
2
ENTITIES
0
CIRCLE
5
100
100
AcDbEntity
8
0
100
AcDbCircle
10
305.74967007394059
20
37.793107727360209
30
0
40
1.6999999999999789
210
-2.5243548967072378e-29
220
-4.9303806576316062e-32
230
1
0
CIRCLE
5
101
100
AcDbEntity
8
0
100
AcDbCircle
10
234.24967007394093
20
37.793107727357409
30
0
40
1.7000000000000144
210
-2.5243548967072378e-29
220
-4.9303806576316062e-32
230
1
0
CIRCLE
5
102
100
AcDbEntity
8
0
100
AcDbCircle
10
269.99967007394235
20
2.0431077273589562
30
0
40
39.399999999999913
210
-2.5243548967072378e-29
220
-4.9303806576316062e-32
230
1
0
CIRCLE
5
103
100
AcDbEntity
8
0
100
AcDbCircle
10
234.24967007394631
20
56.29323270597105
30
0
40
1.6999999999999789
210
-2.5243548967072378e-29
220
-4.9303806576316062e-32
230
1
0
CIRCLE
5
104
100
AcDbEntity
8
0
100
AcDbCircle
10
305.74967007394264
20
127.79323270597379
30
0
40
1.6999999999999789
210
-2.5243548967072378e-29
220
-4.9303806576316062e-32
230
1
0
CIRCLE
5
105
100
AcDbEntity
8
0
100
AcDbCircle
10
305.74967007394588
20
56.29323270597417
30
0
40
1.6999999999999789
210
-2.5243548967072378e-29
220
-4.9303806576316062e-32
230
1
0
CIRCLE
5
106
100
AcDbEntity
8
0
100
AcDbCircle
10
234.24967007394375
20
-33.706892272642335
30
0
40
1.7000000000000144
210
-2.5243548967072378e-29
220
-4.9303806576316062e-32
230
1
0
CIRCLE
5
107
100
AcDbEntity
8
0
100
AcDbCircle
10
305.74967007394338
20
-33.706892272639536
30
0
40
1.6999999999999789
210
-2.5243548967072378e-29
220
-4.9303806576316062e-32
230
1
0
CIRCLE
5
108
100
AcDbEntity
8
0
100
AcDbCircle
10
269.99967007394383
20
92.043232705972443
30
0
40
39.399999999999949
210
-3.7865323450608567e-29
220
-4.9303806576317475e-32
230
1
0
CIRCLE
5
109
100
AcDbEntity
8
0
100
AcDbCircle
10
234.24967007394309
20
127.79323270597067
30
0
40
1.7000000000000144
210
-2.5243548967072378e-29
220
-4.9303806576316062e-32
230
1
0
CIRCLE
5
110
100
AcDbEntity
8
0
100
AcDbCircle
10
237.98943282511391
20
-91.397039979230897
30
0
40
1.7000000000000144
210
-2.5243548967072378e-29
220
4.930380657631043e-32
230
1
0
CIRCLE
5
111
100
AcDbEntity
8
0
100
AcDbCircle
10
301.98944114935057
20
-91.397039979230911
30
0
40
1.6999999999999789
210
-2.5243548967072378e-29
220
4.930380657631043e-32
230
1
0
CIRCLE
5
112
100
AcDbEntity
8
0
100
AcDbCircle
10
301.98944114934824
20
-206.39704170579103
30
0
40
1.7000000000000144
210
-2.5243548967072378e-29
220
4.930380657631043e-32
230
1
0
LWPOLYLINE
5
113
100
AcDbEntity
8
0
100
AcDbPolyline
90
8
70
1
43
0.0
10
244.98943698723079
20
-193.39704084250997
10
244.98943698723076
20
-104.39704084251008
42
-0.41421356237309509
10
247.9894369872307
20
-101.39704084251009
10
291.98943698723065
20
-101.39704084251007
42
-0.41421356237309509
10
294.98943698723065
20
-104.39704084251007
10
294.98943698723065
20
-193.39704084250997
42
-0.41421356237309509
10
291.98943698723065
20
-196.39704084250997
10
247.98943698723076
20
-196.39704084250994
42
-0.41421356237309509
0
CIRCLE
5
114
100
AcDbEntity
8
0
100
AcDbCircle
10
237.9894328251101
20
-206.39704170578727
30
0
40
1.7000000000000144
210
-2.5243548967072378e-29
220
4.930380657631043e-32
230
1
0
LWPOLYLINE
5
115
100
AcDbEntity
8
0
100
AcDbPolyline
90
8
70
1
43
0.0
10
218.49821331489235
20
-237.95716679899189
42
0.41421354290632995
10
219.99821322862738
20
-239.4571667855613
10
320.00019080110172
20
-239.45717253667362
42
0.41421358204086994
10
321.50019088736667
20
-237.95717252221351
10
321.50018635779099
20
231.91323667028718
42
0.41421354270525795
10
320.00018644405611
20
233.41323665582709
10
219.99820919408734
20
233.41324240693822
42
0.41421358183985346
10
218.49820910782242
20
231.91324239350774
0
ENDSEC
0
SECTION
2
OBJECTS
0
DICTIONARY
5
C
100
AcDbDictionary
3
ACAD_GROUP
350
D
3
ACAD_MLINESTYLE
350
17
0
DICTIONARY
5
D
100
AcDbDictionary
0
DICTIONARY
5
1A
330
C
100
AcDbDictionary
0
DICTIONARY
5
17
100
AcDbDictionary
0
ENDSEC
0
EOF
