0
SECTION
2
HEADER
9
$INSUNITS
70
4
9
$ACADVER
1
AC1014
9
$HANDSEED
5
FFFF
0
ENDSEC
0
SECTION
2
TABLES
0
TABLE
2
VPORT
5
8
100
AcDbSymbolTable
0
ENDTAB
0
TABLE
2
LTYPE
5
5
100
AcDbSymbolTable
0
LTYPE
5
14
100
AcDbSymbolTableRecord
100
AcDbLinetypeTableRecord
2
BYBLOCK
70
0
0
LTYPE
5
15
100
AcDbSymbolTableRecord
100
AcDbLinetypeTableRecord
2
BYLAYER
70
0
0
ENDTAB
0
TABLE
2
LAYER
5
2
100
AcDbSymbolTable
70
2
0
LAYER
5
50
100
AcDbSymbolTableRecord
100
AcDbLayerTableRecord
2
0
70
0
6
CONTINUOUS
0
ENDTAB
0
TABLE
2
STYLE
5
3
100
AcDbSymbolTable
70
1
0
STYLE
5
11
100
AcDbSymbolTableRecord
100
AcDbTextStyleTableRecord
2
STANDARD
70
0
0
ENDTAB
0
TABLE
2
VIEW
5
6
100
AcDbSymbolTable
70
0
0
ENDTAB
0
TABLE
2
UCS
5
7
100
AcDbSymbolTable
70
0
0
ENDTAB
0
TABLE
2
APPID
5
9
100
AcDbSymbolTable
70
2
0
APPID
5
12
100
AcDbSymbolTableRecord
100
AcDbRegAppTableRecord
2
ACAD
70
0
0
ENDTAB
0
TABLE
2
DIMSTYLE
5
A
100
AcDbSymbolTable
70
1
0
ENDTAB
0
TABLE
2
BLOCK_RECORD
5
1
100
AcDbSymbolTable
70
1
0
BLOCK_RECORD
5
1F
100
AcDbSymbolTableRecord
100
AcDbBlockTableRecord
2
*MODEL_SPACE
0
BLOCK_RECORD
5
1B
100
AcDbSymbolTableRecord
100
AcDbBlockTableRecord
2
*PAPER_SPACE
0
ENDTAB
0
ENDSEC
0
SECTION
2
BLOCKS
0
BLOCK
5
20
100
AcDbEntity
100
AcDbBlockBegin
2
*MODEL_SPACE
0
ENDBLK
5
21
100
AcDbEntity
100
AcDbBlockEnd
0
BLOCK
5
1C
100
AcDbEntity
100
AcDbBlockBegin
2
*PAPER_SPACE
0
ENDBLK
5
1D
100
AcDbEntity
100
AcDbBlockEnd
0
ENDSEC
0
SECTION
2
ENTITIES
0
LWPOLYLINE
5
100
100
AcDbEntity
8
0
100
AcDbPolyline
90
24
70
1
43
0.0
10
241.69986640214927
20
53.310009447731453
42
0.5176380902050387
10
240.7570573605671
20
54.643342781064703
10
236.61969804768646
20
54.64334278106449
42
-0.41421356237309548
10
230.61969804768614
20
60.643342781064156
10
230.61969804767915
20
193.04334278106438
42
-0.41421356237309681
10
236.61969804767887
20
199.04334278106467
10
240.75705736055949
20
199.04334278106489
42
0.51763809020503726
10
241.69986640214145
20
200.37667611439829
42
-1.414213562373084
10
248.29952969321596
20
200.37667611439861
42
0.5176380902050467
10
249.2423387347981
20
199.04334278106532
10
290.75705736055943
20
199.04334278106751
42
0.51763809020503726
10
291.69986640214142
20
200.37667611440096
42
-1.4142135623730674
10
298.29952969321596
20
200.37667611440125
42
0.51763809020505047
10
299.24233873479807
20
199.04334278106796
10
303.37969804767886
20
199.04334278106828
42
-0.41421356237309681
10
309.3796980476792
20
193.04334278106859
10
309.37969804768613
20
60.643342781068377
42
-0.4142135623731002
10
303.37969804768647
20
54.64334278106805
10
299.24233873480568
20
54.64334278106783
42
0.51763809020503726
10
298.29952969322369
20
53.310009447734458
42
-1.4142135623730943
10
291.69986640214921
20
53.31000944773411
42
0.51763809020504148
10
290.7570573605671
20
54.643342781067368
10
249.24233873480571
20
54.643342781065158
42
0.51763809020503448
10
248.29952969322369
20
53.310009447731787
42
-1.414213562373094
0
LWPOLYLINE
5
101
100
AcDbEntity
8
0
100
AcDbPolyline
90
24
70
1
43
0.0
10
272.80502844961865
20
-199.60725296279895
42
0.36345551597847625
10
272.31278326201868
20
-200.01953366455336
42
-0.83755151322972976
10
267.68567849857925
20
-200.01953366455336
42
0.36345551597847625
10
267.19343331097934
20
-199.60725296279895
10
237.99846176059791
20
-199.60725296279895
42
-0.41421356237309509
10
234.99846176059791
20
-196.60725296279895
10
234.99846176059791
20
-175.42866393601918
42
0.36345551597847625
10
234.58618105884352
20
-174.93641874841924
42
-0.83755151322972876
10
234.58618105884352
20
-170.30931398497987
42
0.36345551597847975
10
234.99846176059791
20
-169.81706879737993
10
234.99846176059791
20
-148.63847977060018
42
-0.41421356237309331
10
237.99846176059791
20
-145.63847977060018
10
267.71978545772203
20
-145.63847977060021
42
0.36345551597845999
10
268.21203064532193
20
-145.2261990688458
42
-0.83755151322974775
10
272.83913540876136
20
-145.2261990688458
42
0.36345551597845643
10
273.33138059636133
20
-145.63847977060021
10
302
20
-145.63847977060021
42
-0.41421356237309509
10
305
20
-148.63847977060021
10
305
20
-169.81706879737993
42
0.3634555159784561
10
305.41228070175441
20
-170.30931398497981
42
-0.83755151322975541
10
305.41228070175441
20
-174.93641874841924
42
0.36345551597847625
10
305
20
-175.42866393601915
10
305
20
-196.60725296279895
42
-0.41421356237309509
10
302
20
-199.60725296279895
0
LWPOLYLINE
5
102
100
AcDbEntity
8
0
100
AcDbPolyline
90
8
70
1
43
0.0
10
218.49823806534556
20
-237.95716081785514
42
0.41421354290631607
10
219.99823797908056
20
-239.45716080442455
10
320.00021555155513
20
-239.45716655553684
42
0.41421358204087683
10
321.50021563782013
20
-237.95716654107676
10
321.50021110824446
20
231.91324265142472
42
0.41421354270529259
10
320.00021119450946
20
233.41324263696461
10
219.99823394454057
20
233.41324838807577
42
0.41421358183983958
10
218.49823385827565
20
231.91324837464526
0
CIRCLE
5
103
100
AcDbEntity
8
0
100
AcDbCircle
10
269.9996948243554
20
-87.956999999989605
30
0
40
39.400000000000041
210
-1.262177448353618e-29
220
-1.479114197296253e-31
230
1
0
CIRCLE
5
104
100
AcDbEntity
8
0
100
AcDbCircle
10
234.24969482434645
20
-33.706875021377328
30
0
40
1.6999999999999766
210
1.071226990110813e-44
220
-1.9721522630525295e-31
230
1
0
CIRCLE
5
105
100
AcDbEntity
8
0
100
AcDbCircle
10
234.24969482434324
20
37.793124978622622
30
0
40
1.6999999999999944
210
-1.2621774483536186e-29
220
-4.9303806576998823e-32
230
1
0
CIRCLE
5
106
100
AcDbEntity
8
0
100
AcDbCircle
10
305.74969482434301
20
37.793124978625997
30
0
40
1.6999999999999944
210
-1.2621774483536186e-29
220
-4.9303806576998823e-32
230
1
0
CIRCLE
5
107
100
AcDbEntity
8
0
100
AcDbCircle
10
234.24969482435361
20
-52.206999999991488
30
0
40
1.6999999999999944
210
-1.2621774483536186e-29
220
-4.9303806576998823e-32
230
1
0
CIRCLE
5
108
100
AcDbEntity
8
0
100
AcDbCircle
10
305.74969482435341
20
-52.206999999987779
30
0
40
1.7000000000000122
210
-1.2621774483536192e-29
220
4.9303806575627653e-32
230
1
0
CIRCLE
5
109
100
AcDbEntity
8
0
100
AcDbCircle
10
269.9996948243479
20
2.0431249786243688
30
0
40
39.399999999999949
210
5.3561349505540645e-45
220
-9.8607613152626476e-32
230
1
0
CIRCLE
5
110
100
AcDbEntity
8
0
100
AcDbCircle
10
305.74969482434619
20
-33.706875021373939
30
0
40
1.6999999999999944
210
-1.2621774483536186e-29
220
-4.9303806576998823e-32
230
1
0
CIRCLE
5
111
100
AcDbEntity
8
0
100
AcDbCircle
10
305.74969482435938
20
-123.7069999999879
30
0
40
1.6999999999999815
210
7.2376856474043022e-62
220
-4.9303806576313238e-32
230
1
0
CIRCLE
5
112
100
AcDbEntity
8
0
100
AcDbCircle
10
234.24969482435966
20
-123.7069999999916
30
0
40
1.7000000000000171
210
-0
220
0
230
1
0
ENDSEC
0
SECTION
2
OBJECTS
0
DICTIONARY
5
C
100
AcDbDictionary
3
ACAD_GROUP
350
D
3
ACAD_MLINESTYLE
350
17
0
DICTIONARY
5
D
100
AcDbDictionary
0
DICTIONARY
5
1A
330
C
100
AcDbDictionary
0
DICTIONARY
5
17
100
AcDbDictionary
0
ENDSEC
0
EOF
