0
SECTION
2
HEADER
9
$INSUNITS
70
4
9
$ACADVER
1
AC1014
9
$HANDSEED
5
FFFF
0
ENDSEC
0
SECTION
2
TABLES
0
TABLE
2
VPORT
5
8
100
AcDbSymbolTable
0
ENDTAB
0
TABLE
2
LTYPE
5
5
100
AcDbSymbolTable
0
LTYPE
5
14
100
AcDbSymbolTableRecord
100
AcDbLinetypeTableRecord
2
BYBLOCK
70
0
0
LTYPE
5
15
100
AcDbSymbolTableRecord
100
AcDbLinetypeTableRecord
2
BYLAYER
70
0
0
ENDTAB
0
TABLE
2
LAYER
5
2
100
AcDbSymbolTable
70
2
0
LAYER
5
50
100
AcDbSymbolTableRecord
100
AcDbLayerTableRecord
2
0
70
0
6
CONTINUOUS
0
ENDTAB
0
TABLE
2
STYLE
5
3
100
AcDbSymbolTable
70
1
0
STYLE
5
11
100
AcDbSymbolTableRecord
100
AcDbTextStyleTableRecord
2
STANDARD
70
0
0
ENDTAB
0
TABLE
2
VIEW
5
6
100
AcDbSymbolTable
70
0
0
ENDTAB
0
TABLE
2
UCS
5
7
100
AcDbSymbolTable
70
0
0
ENDTAB
0
TABLE
2
APPID
5
9
100
AcDbSymbolTable
70
2
0
APPID
5
12
100
AcDbSymbolTableRecord
100
AcDbRegAppTableRecord
2
ACAD
70
0
0
ENDTAB
0
TABLE
2
DIMSTYLE
5
A
100
AcDbSymbolTable
70
1
0
ENDTAB
0
TABLE
2
BLOCK_RECORD
5
1
100
AcDbSymbolTable
70
1
0
BLOCK_RECORD
5
1F
100
AcDbSymbolTableRecord
100
AcDbBlockTableRecord
2
*MODEL_SPACE
0
BLOCK_RECORD
5
1B
100
AcDbSymbolTableRecord
100
AcDbBlockTableRecord
2
*PAPER_SPACE
0
ENDTAB
0
ENDSEC
0
SECTION
2
BLOCKS
0
BLOCK
5
20
100
AcDbEntity
100
AcDbBlockBegin
2
*MODEL_SPACE
0
ENDBLK
5
21
100
AcDbEntity
100
AcDbBlockEnd
0
BLOCK
5
1C
100
AcDbEntity
100
AcDbBlockBegin
2
*PAPER_SPACE
0
ENDBLK
5
1D
100
AcDbEntity
100
AcDbBlockEnd
0
ENDSEC
0
SECTION
2
ENTITIES
0
CIRCLE
5
100
100
AcDbEntity
8
0
100
AcDbCircle
10
-280.96542507331031
20
-234.84206227298077
30
0
40
1.749999999999998
210
0
220
-0
230
1
0
CIRCLE
5
101
100
AcDbEntity
8
0
100
AcDbCircle
10
-210.32581476652064
20
-305.48167257977019
30
0
40
1.7499999999999982
210
0
220
-0
230
1
0
CIRCLE
5
102
100
AcDbEntity
8
0
100
AcDbCircle
10
-210.32581476652098
20
-164.20245196619092
30
0
40
1.7500000000000027
210
0
220
-0
230
1
0
LWPOLYLINE
5
103
100
AcDbEntity
8
0
100
AcDbPolyline
90
16
70
1
43
0.0
10
-223.93762030436196
20
-297.95134249388019
10
-273.43509498742048
20
-248.45386781082172
42
-0.19891236737965892
10
-274.67989116737772
20
-245.4486639907789
10
-274.67989116737778
20
-224.23546055518233
42
-0.19891236737964529
10
-273.43509498742065
20
-221.23025673513956
10
-223.93762030436224
20
-171.73278205208106
42
-0.19891236737967924
10
-220.93241648431933
20
-170.48798587212377
10
-199.71921304872282
20
-170.48798587212374
42
-0.1989123673796476
10
-196.71400922868006
20
-171.73278205208089
10
-147.21653454562133
20
-221.23025673513939
42
-0.1989123673796355
10
-145.97173836566424
20
-224.23546055518213
10
-145.97173836566415
20
-245.4486639907787
42
-0.1989123673796408
10
-147.21653454562127
20
-248.45386781082152
10
-196.71400922867974
20
-297.95134249388002
42
-0.19891236737967311
10
-199.71921304872265
20
-299.19613867383725
10
-220.93241648431913
20
-299.19613867383731
42
-0.19891236737966606
0
CIRCLE
5
104
100
AcDbEntity
8
0
100
AcDbCircle
10
-139.68620445973102
20
-234.84206227298046
30
0
40
1.749999999999998
210
0
220
-0
230
1
0
LWPOLYLINE
5
105
100
AcDbEntity
8
0
100
AcDbPolyline
90
8
70
1
43
0.0
10
-164.9122592733201
20
-144.83052843665351
10
-164.9122592733201
20
-143.4163148742804
10
-155.71987111789497
20
-134.22392671885524
10
-154.30565755552186
20
-134.22392671885524
10
-109.70767780907501
20
-178.82190646530191
10
-109.70767780907501
20
-180.23612002767499
10
-118.90006596450013
20
-189.42850818310012
10
-120.31427952687322
20
-189.42850818310018
0
LWPOLYLINE
5
106
100
AcDbEntity
8
0
100
AcDbPolyline
90
8
70
1
43
0.0
10
-300.33735000616781
20
-189.42850818310049
10
-301.75156356854086
20
-189.42850818310049
10
-310.94395172396605
20
-180.23612002767538
10
-310.94395172396605
20
-178.82190646530231
10
-266.34597197751941
20
-134.22392671885547
10
-264.93175841514631
20
-134.22392671885547
10
-255.73937025972114
20
-143.41631487428057
10
-255.73937025972114
20
-144.83052843665368
0
LWPOLYLINE
5
107
100
AcDbEntity
8
0
100
AcDbPolyline
90
8
70
1
43
0.0
10
-109.70767780907481
20
-290.86222088729937
10
-154.30565755552149
20
-335.46020063374624
10
-155.71987111789457
20
-335.46020063374624
10
-164.91225927331976
20
-326.26781247832116
10
-164.91225927331976
20
-324.85359891594806
10
-120.31427952687307
20
-280.25561916950119
10
-118.90006596449996
20
-280.25561916950119
10
-109.70767780907481
20
-289.44800732492632
0
LWPOLYLINE
5
108
100
AcDbEntity
8
0
100
AcDbPolyline
90
8
70
1
43
0.0
10
-266.34597197751901
20
-335.46020063374641
10
-310.94395172396582
20
-290.86222088729977
10
-310.94395172396582
20
-289.44800732492672
10
-301.75156356854075
20
-280.25561916950153
10
-300.33735000616764
20
-280.25561916950153
10
-255.73937025972077
20
-324.85359891594817
10
-255.73937025972077
20
-326.26781247832128
10
-264.93175841514591
20
-335.46020063374641
0
LWPOLYLINE
5
109
100
AcDbEntity
8
0
100
AcDbPolyline
90
28
70
1
43
0.0
10
-419.00000000000023
20
-69.5
10
-419.00000000000011
20
-432.00000000000017
10
-405.00000000000011
20
-432.00000000000017
10
-405.00000000000006
20
-444.00000000000006
10
-248.5
20
-444.00000000000006
10
-248.5
20
-435.50000000000006
10
-235.50000000000006
20
-435.5
10
-235.5
20
-395.50000000000023
42
-0.41421356237310542
10
-232.5
20
-392.50000000000011
10
-186.50000000000011
20
-392.50000000000011
42
-0.41421356237310542
10
-183.50000000000009
20
-395.50000000000017
10
-183.50000000000009
20
-435.50000000000006
10
-170.50000000000006
20
-435.50000000000006
10
-170.50000000000006
20
-444.00000000000006
10
-139.50000000000006
20
-444.00000000000006
10
-139.50000000000006
20
-432
10
-127.50000000000003
20
-432
10
-127.50000000000003
20
-444.00000000000006
10
-14.000000000000039
20
-444.00000000000011
10
-14.000000000000036
20
-432.00000000000011
10
-3.1086244689504383e-14
20
-432.00000000000011
10
-3.0198066269804248e-13
20
-69.499999999999957
10
-41.499999999999972
20
-69.5
42
-0.41421356237309331
10
-44.499999999999957
20
-66.500000000000028
10
-44.500000000000107
20
-25
10
-374.50000000000017
20
-25
10
-374.50000000000017
20
-66.500000000000028
42
-0.41421356237309509
10
-377.50000000000011
20
-69.5
0
ENDSEC
0
SECTION
2
OBJECTS
0
DICTIONARY
5
C
100
AcDbDictionary
3
ACAD_GROUP
350
D
3
ACAD_MLINESTYLE
350
17
0
DICTIONARY
5
D
100
AcDbDictionary
0
DICTIONARY
5
1A
330
C
100
AcDbDictionary
0
DICTIONARY
5
17
100
AcDbDictionary
0
ENDSEC
0
EOF
