0
SECTION
2
HEADER
9
$INSUNITS
70
4
9
$ACADVER
1
AC1014
9
$HANDSEED
5
FFFF
0
ENDSEC
0
SECTION
2
TABLES
0
TABLE
2
VPORT
5
8
100
AcDbSymbolTable
0
ENDTAB
0
TABLE
2
LTYPE
5
5
100
AcDbSymbolTable
0
LTYPE
5
14
100
AcDbSymbolTableRecord
100
AcDbLinetypeTableRecord
2
BYBLOCK
70
0
0
LTYPE
5
15
100
AcDbSymbolTableRecord
100
AcDbLinetypeTableRecord
2
BYLAYER
70
0
0
ENDTAB
0
TABLE
2
LAYER
5
2
100
AcDbSymbolTable
70
2
0
LAYER
5
50
100
AcDbSymbolTableRecord
100
AcDbLayerTableRecord
2
0
70
0
6
CONTINUOUS
0
ENDTAB
0
TABLE
2
STYLE
5
3
100
AcDbSymbolTable
70
1
0
STYLE
5
11
100
AcDbSymbolTableRecord
100
AcDbTextStyleTableRecord
2
STANDARD
70
0
0
ENDTAB
0
TABLE
2
VIEW
5
6
100
AcDbSymbolTable
70
0
0
ENDTAB
0
TABLE
2
UCS
5
7
100
AcDbSymbolTable
70
0
0
ENDTAB
0
TABLE
2
APPID
5
9
100
AcDbSymbolTable
70
2
0
APPID
5
12
100
AcDbSymbolTableRecord
100
AcDbRegAppTableRecord
2
ACAD
70
0
0
ENDTAB
0
TABLE
2
DIMSTYLE
5
A
100
AcDbSymbolTable
70
1
0
ENDTAB
0
TABLE
2
BLOCK_RECORD
5
1
100
AcDbSymbolTable
70
1
0
BLOCK_RECORD
5
1F
100
AcDbSymbolTableRecord
100
AcDbBlockTableRecord
2
*MODEL_SPACE
0
BLOCK_RECORD
5
1B
100
AcDbSymbolTableRecord
100
AcDbBlockTableRecord
2
*PAPER_SPACE
0
ENDTAB
0
ENDSEC
0
SECTION
2
BLOCKS
0
BLOCK
5
20
100
AcDbEntity
100
AcDbBlockBegin
2
*MODEL_SPACE
0
ENDBLK
5
21
100
AcDbEntity
100
AcDbBlockEnd
0
BLOCK
5
1C
100
AcDbEntity
100
AcDbBlockBegin
2
*PAPER_SPACE
0
ENDBLK
5
1D
100
AcDbEntity
100
AcDbBlockEnd
0
ENDSEC
0
SECTION
2
ENTITIES
0
LWPOLYLINE
5
100
100
AcDbEntity
8
0
100
AcDbPolyline
90
8
70
1
43
0.0
10
-266.3459719775193
20
-117.2533639703782
10
-264.93175841514625
20
-117.2533639703782
10
-255.73937025972111
20
-126.44575212580334
10
-255.73937025972111
20
-127.85996568817643
10
-317.30791275464503
20
-189.42850818310049
10
-318.72212631701814
20
-189.42850818310049
10
-327.91451447244327
20
-180.23612002767536
10
-327.91451447244327
20
-178.82190646530228
0
LWPOLYLINE
5
101
100
AcDbEntity
8
0
100
AcDbPolyline
90
8
70
1
43
0.0
10
-266.3459719775193
20
-352.43076338222374
10
-327.91451447244327
20
-290.86222088729988
10
-327.91451447244327
20
-289.44800732492683
10
-318.72212631701814
20
-280.25561916950164
10
-317.30791275464503
20
-280.25561916950164
10
-255.73937025972106
20
-341.82416166442545
10
-255.73937025972106
20
-343.23837522679855
10
-264.93175841514619
20
-352.43076338222374
0
LWPOLYLINE
5
102
100
AcDbEntity
8
0
100
AcDbPolyline
90
8
70
1
43
0.0
10
-164.91225927331999
20
-127.85996568817623
10
-164.91225927331999
20
-126.44575212580314
10
-155.71987111789485
20
-117.25336397037796
10
-154.30565755552178
20
-117.25336397037796
10
-92.73711506059783
20
-178.82190646530182
10
-92.737115060597844
20
-180.2361200276749
10
-101.92950321602298
20
-189.42850818310006
10
-103.34371677839607
20
-189.42850818310006
0
LWPOLYLINE
5
103
100
AcDbEntity
8
0
100
AcDbPolyline
90
8
70
1
43
0.0
10
-164.91225927332005
20
-341.82416166442533
10
-103.34371677839611
20
-280.25561916950119
10
-101.92950321602302
20
-280.25561916950119
10
-92.737115060597887
20
-289.44800732492632
10
-92.737115060597901
20
-290.86222088729943
10
-154.3056575555218
20
-352.43076338222352
10
-155.71987111789491
20
-352.43076338222352
10
-164.91225927332005
20
-343.23837522679838
0
CIRCLE
5
104
100
AcDbEntity
8
0
100
AcDbCircle
10
-122.71564171125397
20
-234.84206367630065
30
0
40
1.7500000000000071
210
-0
220
0
230
1
0
CIRCLE
5
105
100
AcDbEntity
8
0
100
AcDbCircle
10
-210.32581476652055
20
-322.45223673156744
30
0
40
1.7500000000000426
210
-0
220
0
230
1
0
CIRCLE
5
106
100
AcDbEntity
8
0
100
AcDbCircle
10
-210.32581476652052
20
-147.23189062103418
30
0
40
1.7500000000000071
210
-0
220
0
230
1
0
CIRCLE
5
107
100
AcDbEntity
8
0
100
AcDbCircle
10
-297.93598782178714
20
-234.84206367630097
30
0
40
1.7500000000000071
210
-0
220
0
230
1
0
LWPOLYLINE
5
108
100
AcDbEntity
8
0
100
AcDbPolyline
90
16
70
1
43
0.0
10
-129.25117561718696
20
-224.23546055518219
10
-129.25117561718685
20
-245.44866399077878
42
-0.19891236737963433
10
-130.42274849244066
20
-248.27709111552494
10
-196.89078592397647
20
-314.74512854706074
42
-0.19891236737968257
10
-199.71921304872268
20
-315.91670142231459
10
-220.93241648431922
20
-315.91670142231459
42
-0.19891236737965476
10
-223.76084360906538
20
-314.74512854706086
10
-290.22888104060098
20
-248.27709111552511
42
-0.19891236737966159
10
-291.40045391585483
20
-245.44866399077901
10
-291.40045391585488
20
-224.23546055518244
42
-0.19891236737963108
10
-290.2288810406011
20
-221.40703343043629
10
-223.76084360906535
20
-154.93899599890051
42
-0.19891236737967741
10
-220.93241648431913
20
-153.76742312364658
10
-199.71921304872254
20
-153.76742312364655
42
-0.19891236737963744
10
-196.89078592397641
20
-154.93899599890034
10
-130.42274849244069
20
-221.40703343043609
42
-0.19891236737964599
0
LWPOLYLINE
5
109
100
AcDbEntity
8
0
100
AcDbPolyline
90
28
70
1
43
0.0
10
-232.49999999999994
20
-367.50000000000011
10
-186.50000000000006
20
-367.50000000000011
42
-0.41421356237310542
10
-183.5
20
-370.50000000000017
10
-183.5
20
-410.50000000000006
10
-170.49999999999997
20
-410.50000000000006
10
-170.49999999999997
20
-419.00000000000006
10
-139.5
20
-419.00000000000006
10
-139.5
20
-407
10
-127.49999999999997
20
-407
10
-127.49999999999997
20
-419.00000000000006
10
-38.999999999999901
20
-419.00000000000011
10
-38.999999999999893
20
-407.00000000000011
10
-24.99999999999989
20
-407.00000000000011
10
-25.00000000000016
20
-94.5
10
-66.499999999999829
20
-94.5
42
-0.41421356237309331
10
-69.499999999999815
20
-91.500000000000028
10
-69.499999999999972
20
-50
10
-349.5
20
-50
10
-349.5
20
-91.500000000000028
42
-0.41421356237309509
10
-352.5
20
-94.5
10
-394.00000000000006
20
-94.5
10
-394
20
-407.00000000000011
10
-380
20
-407.00000000000017
10
-379.99999999999994
20
-419.00000000000006
10
-248.49999999999994
20
-419.00000000000006
10
-248.49999999999994
20
-410.50000000000006
10
-235.49999999999997
20
-410.5
10
-235.49999999999994
20
-370.50000000000023
42
-0.41421356237310542
0
ENDSEC
0
SECTION
2
OBJECTS
0
DICTIONARY
5
C
100
AcDbDictionary
3
ACAD_GROUP
350
D
3
ACAD_MLINESTYLE
350
17
0
DICTIONARY
5
D
100
AcDbDictionary
0
DICTIONARY
5
1A
330
C
100
AcDbDictionary
0
DICTIONARY
5
17
100
AcDbDictionary
0
ENDSEC
0
EOF
